<?xml version="1.0" standalone="no"?>
<!DOCTYPE svg PUBLIC "-//W3C//DTD SVG 20010904//EN"
 "http://www.w3.org/TR/2001/REC-SVG-20010904/DTD/svg10.dtd">
<svg version="1.0" xmlns="http://www.w3.org/2000/svg"
 width="512.000000pt" height="512.000000pt" viewBox="0 0 512.000000 512.000000"
 preserveAspectRatio="xMidYMid meet">

<g transform="translate(0.000000,512.000000) scale(0.100000,-0.100000)"
fill="#008080" stroke="none">
<path d="M2510 4411 c-8 -5 -34 -17 -57 -27 -30 -13 -359 -318 -1105 -1024
-1264 -1195 -1294 -1224 -1313 -1263 -22 -44 -18 -92 9 -136 52 -81 122 -113
202 -92 32 9 227 189 1124 1037 597 565 1103 1040 1124 1056 46 33 97 37 137
10 15 -9 514 -478 1109 -1042 596 -564 1097 -1034 1113 -1045 49 -31 126 -27
178 10 45 33 89 103 89 142 0 60 -35 95 -1209 1206 -645 612 -1188 1120 -1205
1129 -85 47 -155 61 -196 39z"/>
<path d="M3712 3938 c-8 -8 -12 -64 -12 -184 l0 -172 153 -145 c83 -79 204
-192 267 -250 l115 -106 3 422 c1 232 0 428 -3 435 -6 17 -505 18 -523 0z"/>
<path d="M2512 3603 c-23 -5 -1699 -1607 -1740 -1664 -22 -32 -22 -36 -22
-353 l0 -322 38 -37 38 -37 1740 0 1741 0 39 34 39 34 3 298 c2 165 -1 317 -5
339 -8 36 -84 112 -863 864 -470 453 -869 829 -887 837 -31 14 -74 16 -121 7z
m755 -1044 c379 -363 714 -687 746 -720 l58 -60 -3 -127 -3 -127 -1495 0
-1495 0 -3 120 c-2 83 1 127 10 144 7 13 299 299 648 635 787 758 828 796 840
796 5 0 319 -297 697 -661z"/>
</g>
</svg>
